<svg xmlns="http://www.w3.org/2000/svg" viewBox="0 0 532 194">
  <g id='ribbon'>
    <path fill="#5974D4" d="M505.04 182.393C506.417 186.81 507.099 189.02 508.45 193.439C460.67 184.656 412.868 177.588 364.59 172.17C368.964 130.693 373.338 89.217 377.712 47.74C429.454 53.546 480.686 61.121 531.895 70.535C528.86 74.118 527.348 75.912 524.337 79.507C523.163 80.915 522.577 81.619 521.406 83.028C507.216 100.053 500.253 108.631 486.598 125.91C493.726 146.748 497.146 157.183 503.698 178.072C504.237 179.801 504.505 180.665 505.04 182.393Z"/>
    <path fill="#5974D4" d="M154.39 47.306C158.763 88.783 163.136 130.259 167.51 171.736C119.225 177.154 71.417 184.223 23.63 193.007C24.981 188.588 25.663 186.379 27.039 181.961C27.574 180.233 27.842 179.369 28.381 177.641C34.933 156.752 38.353 146.317 45.481 125.479C31.826 108.2 24.864 99.621 10.674 82.596C9.503 81.187 8.917 80.482 7.743 79.075C4.732 75.48 3.221 73.686 0.186005 70.103C51.401 60.689 102.641 53.113 154.39 47.306Z"/>
    <path fill="#3F5293" d="M453 20C446.856 62.497 443.5 103.5 441.397 146.42C417.379 154.255 388.213 163.218 364.587 172.165C368.961 130.683 373.336 89.2 377.71 47.718C403.08 37.71 427.187 28.803 453 20Z"/>
    <path fill="#3F5293" d="M79 19.5C85.144 61.997 87 103.5 90.5 146.5C114.518 154.335 143.875 162.797 167.502 171.744C163.128 130.262 158.754 88.78 154.38 47.297C129.01 37.288 104.813 28.303 79 19.5Z"/>
    <path fill="#7289DA" d="M441.387 146.571C324.338 123.379 207.36 123.378 90.3119 146.569C86.0713 104.073 81.8306 61.575 77.59 19.078C203.05 -5.895 328.649 -5.895 454.11 19.08C449.869 61.577 445.628 104.074 441.387 146.571Z"/>
  </g>
  <g id='content'>
    <circle fill="white" cx="400" cy="73" r="8"/>
    <path fill="white" d="M185.568 50H190.58V44.204H193.52C195.76 44.204 197.524 43.532 198.812 42.132C200.1 40.732 200.744 39.08 200.744 37.176C200.744 35.272 200.1 33.648 198.812 32.248C197.524 30.876 195.76 30.176 193.492 30.176H185.568V50ZM190.58 39.752V34.852H193.492C194.052 34.852 194.556 35.02 194.948 35.356C195.34 35.692 195.564 36.112 195.676 36.588C195.76 37.064 195.76 37.54 195.676 38.016C195.564 38.52 195.34 38.912 194.948 39.248C194.556 39.584 194.052 39.752 193.492 39.752H190.58ZM202.373 43.476C202.373 45.632 203.185 47.312 204.809 48.488C206.433 49.692 208.365 50.28 210.605 50.28C212.817 50.28 214.749 49.692 216.373 48.488C217.997 47.312 218.809 45.632 218.809 43.476V36.7C218.809 34.572 217.969 32.892 216.345 31.688C214.721 30.512 212.789 29.896 210.577 29.896C208.337 29.896 206.405 30.512 204.781 31.688C203.157 32.892 202.373 34.572 202.373 36.7V43.476ZM207.385 36.7C207.385 36.028 207.693 35.468 208.309 35.076C208.925 34.684 209.681 34.46 210.521 34.46C211.417 34.46 212.173 34.656 212.817 35.048C213.461 35.44 213.797 35.972 213.797 36.7V43.476C213.797 44.148 213.461 44.68 212.845 45.072C212.201 45.464 211.445 45.632 210.605 45.632C209.709 45.632 208.953 45.464 208.337 45.072C207.693 44.708 207.385 44.176 207.385 43.476V36.7ZM237.907 39.724L237.347 43.868H237.263L236.619 39.724L234.575 32.752H230.767L228.555 39.696L228.079 43.868H227.939L227.435 39.668L225.083 30.176H219.875L225.615 50H230.263L231.831 44.484L232.587 39.976H232.671L233.371 44.512L235.135 50H239.783L245.495 30.176H240.315L237.907 39.724ZM252.105 34.88H260.841V30.176H247.037V50H260.841V45.268H252.105V42.3H260.141V37.96H252.105V34.88ZM274.026 50H280.27L274.866 43.196C277.442 42.384 278.758 40.228 278.758 36.7C278.702 34.488 278.002 32.836 276.658 31.772C275.314 30.708 273.578 30.176 271.394 30.176H263.47V50H268.538V43.7H269.434L274.026 50ZM268.538 39.388V34.852H271.478C272.458 34.852 273.158 35.244 273.578 36C273.97 36.756 273.97 37.512 273.578 38.268C273.158 39.024 272.458 39.388 271.478 39.388H268.538ZM291.625 43.812C291.345 44.484 290.897 44.96 290.281 45.24C289.665 45.548 289.021 45.66 288.405 45.604C287.789 45.548 287.229 45.324 286.753 44.932C286.277 44.568 286.053 44.092 286.053 43.504V36.672C286.053 35.888 286.417 35.3 287.201 34.908C287.957 34.516 288.797 34.404 289.749 34.628C290.701 34.852 291.373 35.328 291.821 36.112L295.909 34.46C295.181 32.836 294.173 31.688 292.913 30.96C291.653 30.26 290.337 29.896 288.937 29.896C287.565 29.896 286.305 30.148 285.129 30.652C283.953 31.156 282.973 31.912 282.189 32.948C281.405 34.012 281.041 35.244 281.041 36.672V43.504C281.041 45.632 281.797 47.312 283.365 48.488C284.905 49.692 286.725 50.28 288.853 50.28C289.721 50.28 290.589 50.14 291.429 49.86C292.269 49.58 293.109 49.104 293.949 48.404C294.789 47.732 295.461 46.864 295.993 45.828L291.625 43.812ZM297.311 43.476C297.311 45.632 298.123 47.312 299.747 48.488C301.371 49.692 303.303 50.28 305.543 50.28C307.755 50.28 309.687 49.692 311.311 48.488C312.935 47.312 313.747 45.632 313.747 43.476V36.7C313.747 34.572 312.907 32.892 311.283 31.688C309.659 30.512 307.727 29.896 305.515 29.896C303.275 29.896 301.343 30.512 299.719 31.688C298.095 32.892 297.311 34.572 297.311 36.7V43.476ZM302.323 36.7C302.323 36.028 302.631 35.468 303.247 35.076C303.863 34.684 304.619 34.46 305.459 34.46C306.355 34.46 307.111 34.656 307.755 35.048C308.399 35.44 308.735 35.972 308.735 36.7V43.476C308.735 44.148 308.399 44.68 307.783 45.072C307.139 45.464 306.383 45.632 305.543 45.632C304.647 45.632 303.891 45.464 303.275 45.072C302.631 44.708 302.323 44.176 302.323 43.476V36.7ZM326.937 50H333.181L327.777 43.196C330.353 42.384 331.669 40.228 331.669 36.7C331.613 34.488 330.913 32.836 329.569 31.772C328.225 30.708 326.489 30.176 324.305 30.176H316.381V50H321.449V43.7H322.345L326.937 50ZM321.449 39.388V34.852H324.389C325.369 34.852 326.069 35.244 326.489 36C326.881 36.756 326.881 37.512 326.489 38.268C326.069 39.024 325.369 39.388 324.389 39.388H321.449ZM334.931 30.288C334.819 30.4 334.791 31.8 334.791 34.488V38.548L337.031 40.704C338.543 42.16 339.327 42.86 339.411 42.86C339.467 42.86 339.523 41.572 339.523 38.968V35.048H341.287C341.959 35.048 342.463 35.076 342.743 35.132C343.023 35.188 343.303 35.328 343.527 35.524L344.059 35.972V39.976C344.059 42.608 344.003 44.064 343.947 44.316C343.807 44.764 343.415 45.044 342.743 45.156C342.071 45.268 340.727 45.324 338.711 45.324H334.791V47.648V50H339.215C341.119 50 342.407 49.972 343.051 49.916C343.695 49.86 344.283 49.748 344.843 49.524C345.655 49.244 346.383 48.824 347.027 48.208C347.643 47.62 348.119 46.948 348.427 46.164C348.651 45.604 348.763 45.016 348.819 44.456C348.875 43.896 348.903 42.468 348.903 40.172C348.903 37.932 348.875 36.504 348.847 35.916C348.791 35.356 348.651 34.796 348.427 34.236C347.755 32.64 346.607 31.492 344.983 30.82C344.423 30.596 343.835 30.428 343.275 30.372C342.715 30.316 341.427 30.26 339.439 30.204C336.583 30.148 335.099 30.176 334.931 30.288Z"/>
    <path fill="white" fill-rule="evenodd" clip-rule="evenodd" d="M209.907 63.2211C211.669 65.0905 212.576 67.283 212.576 69.76C212.576 72.1391 211.97 74.1615 210.664 75.7282L210.657 75.7373C209.338 77.2816 207.6 78.056 205.528 78.056C204.815 78.056 204.006 77.8997 203.122 77.6278L201.572 77.1509L202.694 75.9801C203.313 75.3346 203.892 74.3877 204.406 73.0883L204.41 73.0773C204.941 71.7798 205.2 70.5 205.2 69.232C205.2 68.017 204.873 67.0396 204.257 66.2442L204.246 66.2301L204.236 66.2156C203.742 65.5277 202.911 65.096 201.496 65.096C199.347 65.096 197.39 65.9758 195.596 67.8577M209.907 63.2211C208.04 61.2081 205.154 60.312 201.496 60.312C197.756 60.312 194.376 61.4564 191.387 63.7318C188.452 65.9586 186.294 68.8458 184.917 72.3708C183.554 75.8299 182.88 79.652 182.88 83.824C182.88 89.4582 184.123 93.9176 186.764 97.0452C189.373 100.134 192.638 101.72 196.504 101.72C199.009 101.72 201.509 101.101 203.996 99.8921C206.954 98.4648 209.348 95.932 211.212 92.4031L211.328 92.1839V91.936C211.328 91.1348 210.759 90.5859 210.273 90.2498C209.7 89.8526 209.055 89.64 208.36 89.64H207.791L207.5 90.1294C206.363 92.0439 204.93 93.4831 203.205 94.4776C201.436 95.4969 199.767 95.976 198.184 95.976C195.815 95.976 193.911 95.0385 192.399 93.1C190.897 91.1427 190.064 88.09 190.064 83.776C190.064 80.745 190.527 77.8108 191.454 74.9691C192.405 72.1164 193.79 69.7537 195.596 67.8577M253.076 62.7338L253.083 62.7464C253.446 63.3997 253.698 64.0629 253.817 64.7334C253.931 65.3471 253.977 66.3256 253.977 67.6C253.977 68.3137 253.836 69.7625 253.574 71.8751C253.308 74.0135 252.911 76.8935 252.383 80.5125C251.326 87.7468 250.809 92.7531 250.809 95.584C250.809 98.4739 251.043 100.251 251.402 101.097L252.29 103.191L250.147 102.43C248.052 101.687 246.433 100.646 245.439 99.2309L245.43 99.2184L245.422 99.2056C244.735 98.1617 244.324 96.9064 244.152 95.4733C243.144 97.0406 242.003 98.3399 240.722 99.3556C238.531 101.093 235.978 101.96 233.105 101.96C230.194 101.96 227.867 100.943 226.3 98.8172L226.295 98.8105C224.765 96.6979 224.089 93.5111 224.089 89.44C224.089 87.101 224.449 82.95 225.152 77.0339L225.153 77.0286C225.891 71.0927 226.249 67.318 226.249 65.632C226.249 63.8828 226.074 62.6448 225.782 61.8483L225.039 59.8223L227.065 60.5651C229.088 61.3067 230.661 62.3103 231.652 63.6437C232.656 64.9953 233.097 66.785 233.097 68.896C233.097 70.934 232.733 74.1695 232.029 78.5553C231.361 82.8803 231.033 86.4077 231.033 89.152C231.033 91.9139 231.483 93.6574 232.182 94.6068C232.869 95.5383 233.833 96.024 235.217 96.024C236.637 96.024 238.106 95.4253 239.641 94.0687C241.557 92.3544 243.181 89.4819 244.436 85.312L244.436 85.3103C244.949 83.6156 245.377 81.7361 245.717 79.6695C246.469 73.7244 246.841 68.9854 246.841 65.44C246.841 64.5176 246.779 63.2348 246.652 61.5807L246.565 60.4455L247.702 60.5054C248.975 60.5724 250.075 60.7589 250.967 61.0969C251.863 61.4361 252.614 61.9544 253.069 62.7215L253.076 62.7338ZM266.106 61.851L266.918 61.9516C270.228 62.3614 274.026 62.568 278.316 62.568C282.571 62.568 286.959 62.1582 291.481 61.3361L292.857 61.086L292.648 62.4689C292.397 64.1373 291.733 65.5216 290.588 66.5182C289.454 67.5056 287.95 68.0241 286.178 68.1643C284.761 68.2979 283.333 68.4093 281.894 68.4985C281.721 70.4534 281.189 74.5271 280.314 80.6522C279.289 88.0482 278.788 93.0707 278.788 95.776C278.788 98.5306 279.02 100.248 279.38 101.097L280.268 103.191L278.125 102.43C276.031 101.687 274.412 100.646 273.417 99.2309L273.409 99.2184L273.4 99.2056C272.478 97.8039 272.036 96.1666 272.036 94.336C272.036 92.558 272.463 88.5803 273.293 82.4891L273.293 82.4847C274.074 76.9298 274.551 72.3803 274.727 68.8268C272.388 68.8995 270.336 68.936 268.572 68.936C267.609 68.936 266.75 68.5843 266.176 67.789C265.646 67.0541 265.46 66.0743 265.46 65.008C265.46 64.1958 265.589 63.4011 265.847 62.6278L266.106 61.851ZM309.565 62.7338L309.572 62.7464C309.935 63.3997 310.187 64.0629 310.306 64.7334C310.42 65.3472 310.466 66.3256 310.466 67.6C310.466 68.3137 310.324 69.7625 310.062 71.8751C309.797 74.0135 309.4 76.8935 308.872 80.5125C307.815 87.7468 307.298 92.7531 307.298 95.584C307.298 98.4739 307.531 100.251 307.891 101.097L308.779 103.191L306.636 102.43C304.541 101.687 302.922 100.646 301.928 99.2309L301.919 99.2184L301.911 99.2056C300.993 97.8103 300.546 96.2072 300.546 94.432C300.546 92.7209 300.893 89.3573 301.563 84.4097L301.564 84.4015C302.746 76.1925 303.33 69.8802 303.33 65.44C303.33 64.5176 303.268 63.2348 303.141 61.5807L303.054 60.4455L304.191 60.5054C305.464 60.5724 306.564 60.7589 307.456 61.0969C308.351 61.4361 309.102 61.9544 309.558 62.7215L309.565 62.7338ZM339.79 84.68H339.779L335.518 84.632H335.512C334.427 84.632 333.531 84.6476 332.82 84.6777C332.416 88.4449 332.196 91.8734 332.157 94.9649C339.007 94.9226 343.897 94.4431 346.902 93.5679L348.356 93.1444L348.175 94.6478C347.931 96.6656 347.221 98.3385 345.964 99.5606C344.736 100.785 343.18 101.384 341.374 101.384C340.866 101.384 339.415 101.265 337.109 101.044C334.833 100.855 332.623 100.76 330.478 100.76C328.366 100.76 326.253 100.962 324.138 101.366L322.612 101.658L322.978 100.148C323.253 99.015 323.857 98.0371 324.743 97.2169C324.741 97.1701 324.74 97.1225 324.738 97.0743C324.73 96.7576 324.726 96.3397 324.726 95.824C324.726 95.238 324.852 93.9668 325.081 92.0905C325.277 90.4906 325.555 88.404 325.914 85.8323C325.651 85.9192 325.408 86.0073 325.185 86.0965L323.965 86.5845L323.82 85.2784C323.754 84.6859 323.718 84.1807 323.718 83.776C323.718 82.6273 324.013 81.5945 324.687 80.7679C325.222 80.1122 325.942 79.6525 326.79 79.3532C327.405 74.7657 327.763 71.0228 327.869 68.1148C327.309 67.976 326.801 67.7376 326.411 67.3471L326.394 67.3303L326.378 67.3127C325.795 66.6712 325.638 65.7189 325.638 64.768C325.638 63.7502 325.778 62.8144 326.082 61.9783L326.358 61.2205L327.157 61.3291C330.402 61.7702 333.94 61.992 337.774 61.992C341.585 61.992 345.215 61.6455 348.666 60.9554L350.074 60.6739L349.85 62.092C349.633 63.4661 349.115 64.6502 348.255 65.5877C347.385 66.5402 346.066 67.1329 344.462 67.4741C342.939 67.7981 341.643 68 340.587 68.0691C338.978 68.2123 337.054 68.2915 334.82 68.3085C334.663 70.0932 334.231 73.6634 333.534 78.9704C334.952 79.0116 336.012 79.032 336.718 79.032C339.48 79.032 341.191 78.566 342.101 77.8529L343.491 76.7634L343.71 78.516C343.777 79.0475 343.814 79.5093 343.814 79.888C343.814 81.2583 343.545 82.4709 342.84 83.3555C342.1 84.2832 341.02 84.68 339.79 84.68Z"/>
    <circle fill="white" cx="131" cy="73" r="8"/>
  </g>
</svg>
