<svg xmlns="http://www.w3.org/2000/svg" viewBox="0 0 24 24">
    <path fill='#fff'
          d="M16,6.985c-0.42,0-0.83,0.04-1.24,0.11L1.9,1.585c-0.66-0.29-1.39,0.2-1.39,0.91L0.5,7.185c0,0.47,0.33,0.88,0.78,0.98 l8.22,1.82l-8.22,1.83c-0.45,0.1-0.78,0.5-0.78,0.97l0.01,4.68c0,0.72,0.73,1.2,1.39,0.92l6.68-2.86c0.51,3.65,3.63,6.46,7.42,6.46 c4.14,0,7.5-3.36,7.5-7.5S20.14,6.985,16,6.985z M16,19.985c-3.03,0-5.5-2.47-5.5-5.5s2.47-5.5,5.5-5.5s5.5,2.47,5.5,5.5 S19.03,19.985,16,19.985z M18.12,12.365c-0.2-0.2-0.51-0.2-0.71,0L16,13.775l-1.41-1.41c-0.2-0.2-0.51-0.2-0.71,0s-0.2,0.51,0,0.71 l1.41,1.41l-1.41,1.41c-0.2,0.2-0.2,0.51,0,0.71c0.2,0.2,0.51,0.2,0.71,0l1.41-1.41l1.41,1.41c0.2,0.2,0.51,0.2,0.71,0 c0.2-0.2,0.2-0.51,0-0.71l-1.41-1.41l1.41-1.41C18.32,12.875,18.32,12.555,18.12,12.365z"/>
</svg>
