<svg xmlns="http://www.w3.org/2000/svg" viewBox="0 0 416.2 416.2">
    <path style="fill:#99AAB5;" d="M156.9,129.48h-47.787V30.493c0-13.196,10.697-23.893,23.893-23.893l0,0
	    c13.196,0,23.893,10.697,23.893,23.893L156.9,129.48L156.9,129.48z"/>
    <path style="fill:#23272A;" d="M156.9,136.079h-47.787c-3.647,0-6.6-2.953-6.6-6.6V30.493C102.513,13.679,116.194,0,133.007,0S163.5,13.681,163.5,30.493
	    v98.987C163.5,133.125,160.547,136.079,156.9,136.079z M115.713,122.878H150.3V30.493c0-9.533-7.76-17.294-17.294-17.294
	    s-17.294,7.76-17.294,17.294L115.713,122.878L115.713,122.878z"/>
    <path style="fill:#99AAB5;" d="M286.607,129.48H238.82V30.493c0-13.196,10.697-23.893,23.893-23.893l0,0
	    c13.196,0,23.893,10.697,23.893,23.893L286.607,129.48L286.607,129.48z"/>
    <path style="fill:#23272A;" d="M286.607,136.079H238.82c-3.647,0-6.6-2.953-6.6-6.6V30.493C232.22,13.679,245.901,0,262.713,0s30.493,13.681,30.493,30.493
	    v98.987C293.206,133.125,290.254,136.079,286.607,136.079z M245.42,122.878h34.587V30.493c0-9.533-7.76-17.294-17.294-17.294
	    c-9.534,0-17.294,7.76-17.294,17.294L245.42,122.878L245.42,122.878z"/>
    <rect x="81.81" y="129.47" style="fill:#23272A;" width="232.11" height="34.13"/>
    <path style="fill:#23272A;" d="M313.913,170.44H81.806c-3.773,0-6.827-3.053-6.827-6.827V129.48c0-3.773,3.053-6.827,6.827-6.827h232.107
	    c3.773,0,6.827,3.053,6.827,6.827v34.133C320.74,167.386,317.687,170.44,313.913,170.44z M88.633,156.786h218.453v-20.48H88.633
	    V156.786z"/>
    <path style="fill:#7289DA;" d="M263.536,320.626H132.184c-20.282,0-36.724-16.442-36.724-36.724V163.613h204.8v120.289
	    C300.26,304.184,283.818,320.626,263.536,320.626z"/>
    <path style="fill:#23272A;" d="M263.532,327.453H132.187c-24.013,0-43.554-19.54-43.554-43.554V163.613c0-3.773,3.053-6.827,6.827-6.827h204.8
	    c3.773,0,6.827,3.053,6.827,6.827v120.286C307.086,307.912,287.547,327.453,263.532,327.453z M102.286,170.44v113.459
	    c0,16.486,13.413,29.901,29.901,29.901h131.347c16.486,0,29.901-13.413,29.901-29.901V170.44H102.286z"/>
    <rect x="177.38" y="320.62" style="fill:#23272A;" width="40.96" height="40.96"/>
    <path style="fill:#23272A;" d="M218.34,368.413h-40.96c-3.773,0-6.827-3.053-6.827-6.827v-40.96c0-3.773,3.053-6.827,6.827-6.827h40.96
	    c3.773,0,6.827,3.053,6.827,6.827v40.96C225.167,365.36,222.113,368.413,218.34,368.413z M184.206,354.76h27.307v-27.307h-27.307
	    V354.76z"/>
    <path style="fill:#23272A;" d="M334.393,416.2h-88.747c-30.114,0-54.613-24.499-54.613-54.613c0-3.773,3.053-6.827,6.827-6.827s6.827,3.053,6.827,6.827
	    c0,22.586,18.374,40.96,40.96,40.96h88.747c3.773,0,6.827,3.053,6.827,6.827S338.167,416.2,334.393,416.2z"/>
</svg>
