<svg xmlns="http://www.w3.org/2000/svg" viewBox="0 0 20 20">
    <path fill="#4f545c"
          d="M10.0004091,17.9551224 C10.0858672,17.9614327 10.1667272,17.964204 10.2413259,17.9634317 C11.0084737,17.8520863 11.8842627,17.6349594 12.281369,17.2112099 C12.6060224,16.8647745 12.8945379,16.4383305 13.005301,16 C13.9884001,16.7219456 15.6293247,16.4558073 16.5,15.5267154 C17.3313468,14.6395908 16.8177113,13.3070173 16.5,12.5 C16.7653467,12.3700698 17.0420615,12.1311066 17.260805,11.8976868 C17.7709162,11.3533505 18.0169226,10.7073933 18.0000015,10.0000632 C18.0169226,9.29273289 17.7709162,8.64677569 17.260805,8.10243942 C17.0420615,7.86901966 16.7653467,7.63005642 16.5,7.50012624 C16.8177113,6.69310896 17.3313468,5.36053545 16.5,4.47341082 C15.6293247,3.54431894 13.9884001,3.27818062 13.005301,4.00012624 C12.8945379,3.5617957 12.6060224,3.13535178 12.281369,2.78891632 C11.8842627,2.36516686 11.0071884,2.10302048 10.2400405,2.02092369 C10.1656968,1.99098569 10.0851346,1.99373545 10,2 C9.9025807,1.99364649 9.8148636,1.99085449 9.7400405,1.9916291 C9.11144571,2.11730654 8.10553978,2.37692165 7.71944921,2.78891632 C7.39479585,3.13535178 7.10628031,3.5617957 6.99551718,4.00012624 C6.01241812,3.27818062 4.37149355,3.54431894 3.5008182,4.47341082 C2.66947142,5.36053545 3.18310688,6.69310896 3.5008182,7.50012624 C3.23547149,7.63005642 2.95875674,7.86901966 2.74001321,8.10243942 C2.22990202,8.64677569 1.98389563,9.29273289 2.00081669,10.0000631 C1.98389563,10.7073933 2.22990202,11.3533505 2.74001321,11.8976868 C2.95875674,12.1311066 3.23547149,12.3700698 3.5008182,12.5 C3.18310688,13.3070173 2.66947142,14.6395908 3.5008182,15.5267154 C4.37149355,16.4558073 6.01241812,16.7219456 6.99551718,16 C7.10628031,16.4383305 7.39479585,16.8647745 7.71944921,17.2112099 C8.10553978,17.6232046 9.11273107,17.8378805 9.74132585,17.926925 C9.81592455,17.964204 9.90334002,17.9614327 10.0004091,17.9551224 Z"/>
    <path fill="#ffffff"
          d="M8.84273967,12.8167603 L13.8643,7.7952 C14.0513,7.6072 14.0513,7.3042 13.8643,7.1172 C13.6773,6.9312 13.3743,6.9312 13.1863,7.1172 L8.52303089,11.78139 L6.8883,10.1475 C6.6843,9.9445 6.3553,9.9445 6.1523,10.1475 C5.9493,10.3515 5.9493,10.6805 6.1523,10.8835 L8.08381122,12.8160053 C8.09561409,12.8309877 8.10844368,12.8454178 8.1223,12.8592 C8.3093,13.0472 8.6123,13.0472 8.8003,12.8592 L8.82157566,12.8379243 C8.82518839,12.8345112 8.82876362,12.8310364 8.8323,12.8275 C8.83584168,12.8239583 8.83932157,12.820378 8.84273967,12.8167603 Z"/>
</svg>
